<?xml version="1.0" standalone="no"?>
<!DOCTYPE svg PUBLIC "-//W3C//DTD SVG 20010904//EN"
 "http://www.w3.org/TR/2001/REC-SVG-20010904/DTD/svg10.dtd">
<svg version="1.0" xmlns="http://www.w3.org/2000/svg"
 width="229.000000pt" height="229.000000pt" viewBox="0 0 229.000000 229.000000"
 preserveAspectRatio="xMidYMid meet">
<metadata>
Created by potrace 1.15, written by Peter Selinger 2001-2017
</metadata>
<g transform="translate(0.000000,229.000000) scale(0.100000,-0.100000)"
fill="#000000" stroke="none">
<path d="M980 2203 c-14 -2 -60 -13 -102 -24 -369 -93 -665 -387 -768 -764
-33 -120 -39 -356 -12 -486 95 -458 480 -804 945 -848 187 -18 383 15 552 93
73 34 210 121 233 148 10 13 -12 50 -129 219 -300 432 -358 509 -385 509 -35
0 -129 -126 -301 -401 l-41 -67 -113 -6 c-335 -17 -381 -17 -373 -4 11 19 143
194 256 340 102 132 140 164 226 189 23 7 42 15 42 18 0 3 -30 19 -66 35 -54
25 -75 42 -123 100 -116 143 -313 407 -308 413 3 3 113 1 243 -3 l238 -9 122
-190 c67 -104 140 -210 162 -235 l40 -45 38 41 c33 34 110 143 468 656 l39 57
-24 21 c-60 51 -196 135 -270 166 -147 62 -216 76 -399 79 -91 2 -176 1 -190
-2z"/>
<path d="M2045 1552 c-269 -357 -286 -375 -384 -413 l-46 -17 30 -12 c114 -43
129 -58 350 -353 102 -137 94 -136 146 -3 94 242 93 541 -1 784 -17 45 -35 82
-38 82 -4 -1 -30 -31 -57 -68z"/>
</g>
</svg>
